<svg width="1280" height="720" viewBox="0 0 1280 720" fill="none" xmlns="http://www.w3.org/2000/svg">
  <rect width="1280" height="720" rx="40" fill="#07111F"/>
  <rect x="48" y="44" width="1184" height="76" rx="24" fill="#0F172A"/>
  <rect x="80" y="68" width="180" height="28" rx="14" fill="#F59E0B"/>
  <rect x="908" y="66" width="112" height="30" rx="15" fill="#1E293B"/>
  <rect x="1036" y="66" width="156" height="30" rx="15" fill="#1E293B"/>
  <rect x="48" y="152" width="736" height="240" rx="32" fill="url(#hero)"/>
  <rect x="88" y="194" width="236" height="20" rx="10" fill="#F8FAFC" fill-opacity=".8"/>
  <rect x="88" y="232" width="356" height="46" rx="14" fill="#F8FAFC"/>
  <rect x="88" y="300" width="290" height="18" rx="9" fill="#E2E8F0" fill-opacity=".8"/>
  <rect x="88" y="332" width="220" height="18" rx="9" fill="#E2E8F0" fill-opacity=".6"/>
  <rect x="88" y="360" width="148" height="18" rx="9" fill="#F59E0B"/>
  <rect x="816" y="152" width="416" height="240" rx="32" fill="#0F172A"/>
  <rect x="856" y="188" width="180" height="18" rx="9" fill="#CBD5E1"/>
  <rect x="856" y="222" width="336" height="132" rx="22" fill="#111827"/>
  <rect x="48" y="424" width="1184" height="248" rx="32" fill="#0F172A"/>
  <rect x="80" y="460" width="168" height="18" rx="9" fill="#CBD5E1"/>
  <rect x="80" y="502" width="1120" height="1" fill="#1E293B"/>
  <rect x="80" y="528" width="264" height="108" rx="24" fill="#111827"/>
  <rect x="372" y="528" width="264" height="108" rx="24" fill="#111827"/>
  <rect x="664" y="528" width="264" height="108" rx="24" fill="#111827"/>
  <rect x="956" y="528" width="244" height="108" rx="24" fill="#111827"/>
  <defs>
    <linearGradient id="hero" x1="48" y1="152" x2="784" y2="392" gradientUnits="userSpaceOnUse">
      <stop stop-color="#F59E0B"/>
      <stop offset="1" stop-color="#EA580C"/>
    </linearGradient>
  </defs>
</svg>
