<svg width="750" height="1334" viewBox="0 0 750 1334" fill="none" xmlns="http://www.w3.org/2000/svg">
  <rect width="750" height="1334" rx="44" fill="#07111F"/>
  <rect x="40" y="48" width="670" height="74" rx="28" fill="#0F172A"/>
  <rect x="72" y="72" width="152" height="26" rx="13" fill="#F59E0B"/>
  <rect x="40" y="156" width="670" height="276" rx="36" fill="url(#hero)"/>
  <rect x="78" y="208" width="222" height="22" rx="11" fill="#F8FAFC" fill-opacity=".82"/>
  <rect x="78" y="252" width="320" height="52" rx="16" fill="#F8FAFC"/>
  <rect x="78" y="334" width="248" height="18" rx="9" fill="#E2E8F0" fill-opacity=".82"/>
  <rect x="78" y="366" width="176" height="18" rx="9" fill="#E2E8F0" fill-opacity=".62"/>
  <rect x="78" y="396" width="140" height="18" rx="9" fill="#F59E0B"/>
  <rect x="40" y="470" width="670" height="172" rx="32" fill="#0F172A"/>
  <rect x="74" y="506" width="144" height="18" rx="9" fill="#CBD5E1"/>
  <rect x="74" y="548" width="602" height="1" fill="#1E293B"/>
  <rect x="74" y="574" width="602" height="28" rx="14" fill="#111827"/>
  <rect x="40" y="680" width="670" height="614" rx="32" fill="#0F172A"/>
  <rect x="74" y="718" width="166" height="18" rx="9" fill="#CBD5E1"/>
  <rect x="74" y="760" width="602" height="112" rx="26" fill="#111827"/>
  <rect x="74" y="898" width="602" height="112" rx="26" fill="#111827"/>
  <rect x="74" y="1036" width="602" height="112" rx="26" fill="#111827"/>
  <rect x="74" y="1174" width="602" height="82" rx="24" fill="#111827"/>
  <defs>
    <linearGradient id="hero" x1="40" y1="156" x2="710" y2="432" gradientUnits="userSpaceOnUse">
      <stop stop-color="#F59E0B"/>
      <stop offset="1" stop-color="#EA580C"/>
    </linearGradient>
  </defs>
</svg>
